<svg xmlns="http://www.w3.org/2000/svg" viewBox="0 0 1259.22 639.87"><defs><style>.cls-1{fill:#3619fd;}</style></defs><g id="Capa_2" data-name="Capa 2"><g id="Capa_1-2" data-name="Capa 1"><path class="cls-1" d="M1256.47.77c-5.56,11.89-14.88,21.29-24.46,30-11.13,10.13-22.45,20-33.68,30.07L1179,78.11l2.51.67a117,117,0,0,1,.29-40.84l-2.74.36c2.67,5.83,1.11,12.35-.5,18.24-1.7,6.21-3.89,12.65-3.29,19.18.29,3.22,1.31,6.48,4,8.48,2.48,1.84,5.66,2.18,8.64,2.42,8.21.67,16.44,1.06,24.68,1.22q13.83.28,27.67-.35c1.92-.08,1.93-3.08,0-3a423.06,423.06,0,0,1-47.91-.54c-3.23-.22-7-.08-10-1.4s-4-4.52-4.17-7.6c-.34-6.29,1.84-12.38,3.45-18.37,1.76-6.56,2.93-13.39,0-19.8a1.51,1.51,0,0,0-2.74.36,121.2,121.2,0,0,0-.3,42.43,1.52,1.52,0,0,0,2.51.67l35-31.22c5.54-4.94,11.11-9.87,16.63-14.84a181,181,0,0,0,14-13.72,75.87,75.87,0,0,0,12.36-18.17c.81-1.74-1.77-3.27-2.59-1.52Z"/><path class="cls-1" d="M1,115.59c19,7.87,35.92,19.93,50.81,34C66.91,163.83,80.05,180,92.32,196.75c7,9.51,13.7,19.21,20.38,28.94a1.52,1.52,0,0,0,2.8-.76l6.35-50.24,1.8-14.28h-3a263.23,263.23,0,0,1,.53,53.69,104,104,0,0,1-1.58,12.81c-.37,1.67-1,3.22-2.76,3.86-1.87.69-4.09.58-6,.68a188.4,188.4,0,0,1-55.91-5.6c-1.87-.48-2.67,2.41-.8,2.89a192.18,192.18,0,0,0,55,5.79c3.7-.16,8.88.29,11.54-2.84a10.13,10.13,0,0,0,2-4.91c.36-2.11.58-4.24.83-6.36a259.79,259.79,0,0,0,1.78-28.29,262.57,262.57,0,0,0-1.64-31.72,1.5,1.5,0,0,0-3,0l-6.35,50.23-1.8,14.29,2.79-.76c-12-17.5-24.18-34.94-37.75-51.29-13.33-16.07-28.12-31.11-45.2-43.22a156.72,156.72,0,0,0-30.55-17C0,112-.77,114.86,1,115.59Z"/><path class="cls-1" d="M205.53,638.44a309.76,309.76,0,0,1,1.52-79.9A314.8,314.8,0,0,1,228.58,482a308.93,308.93,0,0,1,20.58-40,1.52,1.52,0,0,0-.53-2.06c-7.7-4.25-16.48-2.14-24,1.33a115.41,115.41,0,0,0-12,6.73l-13,7.94-14.88,9.12a1.53,1.53,0,0,0-.31,2.36c5.54,6.36,14.79,4.35,21.62,1.53,4.37-1.8,8.5-4.14,12.73-6.22q7.23-3.54,14.6-6.76a304.92,304.92,0,0,1,30.13-11.45c2.21-.69,4.42-1,6,1,1.27,1.71,1.82,3.91,2.47,5.9l5.34,16.1L289.41,504c.6,1.82,3.5,1,2.89-.8l-10.84-32.69L276,454.18c-.79-2.41-1.5-4.87-2.45-7.23a10.66,10.66,0,0,0-3.38-4.88c-1.95-1.4-4.36-1.32-6.59-.71-2.56.7-5.08,1.65-7.58,2.53q-7.71,2.7-15.28,5.76-15.09,6.11-29.59,13.57c-6.75,3.48-18.29,9.31-24.58,2.07l-.31,2.35,24.88-15.24c7.29-4.46,14.69-9.55,23.18-11.37a18.21,18.21,0,0,1,12.77,1.49l-.54-2A312.69,312.69,0,0,0,214,513.82a317.8,317.8,0,0,0-13.1,79.23,309.94,309.94,0,0,0,1.68,45.39c.21,1.9,3.22,1.92,3,0Z"/><path class="cls-1" d="M1175.89,412.47c-13.6,6.26-29.2.37-42.26-4.45q-23-8.49-45.64-17.86c-13.7-5.67-27.36-11.48-40.71-18a270.61,270.61,0,0,1-35.63-20.29,152.67,152.67,0,0,1-30.2-26.87q-1.63-1.95-3.21-4c-.9-1.16-2.42,0-2.56,1.06a209.15,209.15,0,0,0,.25,51.42c.23,1.85,3.06,2,3,0l-.71-22.77-.34-10.89c-.11-3.52-.36-7.07-.27-10.6.07-2.74.56-5.82,3-7.47,2.12-1.43,4.92-1.39,7.36-1.1a92.85,92.85,0,0,1,9.75,2.07l11.2,2.58,24.82,5.72c1.88.43,2.68-2.46.8-2.89l-23.61-5.44L999,320c-3.4-.78-6.8-1.73-10.27-2.19a15.39,15.39,0,0,0-8.45.77,9.46,9.46,0,0,0-5.18,6.53c-.78,3.19-.48,6.57-.38,9.83l.37,11.87.84,26.73h3a209.15,209.15,0,0,1-.25-51.42l-2.56,1.06A148.22,148.22,0,0,0,1006,351.57a250.1,250.1,0,0,0,35.89,21.33c13.19,6.56,26.75,12.39,40.34,18.08q23.05,9.66,46.48,18.4c13.55,5.06,28.88,11.53,43.55,7.59a32.48,32.48,0,0,0,5.15-1.91c1.75-.8.23-3.39-1.51-2.59Z"/></g></g></svg>