<svg xmlns="http://www.w3.org/2000/svg" viewBox="0 0 259.17 142.62"><defs><style>.cls-1{fill:#3619fd;}</style></defs><g id="Capa_2" data-name="Capa 2"><g id="Capa_1-2" data-name="Capa 1"><path class="cls-1" d="M256.43.78a169.27,169.27,0,0,1-37.87,53.47A166.83,166.83,0,0,1,163.05,89.5c-6.08,2.3-12.78,4.32-19.33,3.16a16.55,16.55,0,0,1-12-8.61A9.65,9.65,0,0,1,131,77c1-3,3.93-2.64,6.09-1,3.71,2.73,5.45,7.57,5.56,12a24.87,24.87,0,0,1-3.83,13.51,28.82,28.82,0,0,1-11.59,10.24c-10.58,5.52-23.13,6.56-34.79,8-26.68,3.22-54.13,4.78-80.6-1q-4.92-1.08-9.77-2.48a1.5,1.5,0,0,0-.8,2.89c27.88,8.07,57.31,7.32,85.89,4.16,6.8-.76,13.62-1.56,20.38-2.65a76.84,76.84,0,0,0,17.9-4.78c5.22-2.22,10.29-5.4,13.86-9.88a29,29,0,0,0,6.09-14,20.94,20.94,0,0,0-2.74-14.35,13.77,13.77,0,0,0-6.11-5.47A6,6,0,0,0,129.22,74c-3.34,4.48-1.15,11,2.05,14.89A20.76,20.76,0,0,0,146.55,96c6.95.29,13.72-2.08,20.07-4.64a169.68,169.68,0,0,0,15.95-7.42,171.86,171.86,0,0,0,28.88-19.34,172.65,172.65,0,0,0,43.87-54.48q1.95-3.84,3.7-7.77C259.8.55,257.22-1,256.43.78Z"/><path class="cls-1" d="M2.23,119.18l25.14-15.06a1.5,1.5,0,0,0-1.51-2.6L.72,116.59a1.5,1.5,0,0,0,1.51,2.59Z"/><path class="cls-1" d="M3.62,119.8c-.2.32-.34,0-.25.35a4.72,4.72,0,0,0,.51.65c.32.44.62.9.92,1.36.61.92,1.19,1.86,1.75,2.8C7.73,127,8.84,129,10,131a51.27,51.27,0,0,0,7.88,11.14A1.5,1.5,0,0,0,20,140.06c-3.78-3.83-6.33-8.59-8.93-13.26-1.31-2.35-2.64-4.69-4.16-6.91a6.51,6.51,0,0,0-2.55-2.65A2.66,2.66,0,0,0,1,118.29C0,119.9,2.56,121.41,3.62,119.8Z"/></g></g></svg>