<svg xmlns="http://www.w3.org/2000/svg" viewBox="0 0 103.52 102.54"><defs></defs><g id="Capa_2" data-name="Capa 2"><g id="Capa_1-2" data-name="Capa 1"><path class="cls-1" d="M51.76,102.54a54.34,54.34,0,0,1-20.58-3.83,49.13,49.13,0,0,1-27.3-27A52.64,52.64,0,0,1,0,51.27,52.64,52.64,0,0,1,3.88,30.88a49.13,49.13,0,0,1,27.3-27A54.34,54.34,0,0,1,51.76,0,54.34,54.34,0,0,1,72.34,3.83,49.07,49.07,0,0,1,99.63,30.88a52.64,52.64,0,0,1,3.89,20.39,52.64,52.64,0,0,1-3.89,20.39A49.07,49.07,0,0,1,72.34,98.71,54.34,54.34,0,0,1,51.76,102.54Zm0-5.37A47.68,47.68,0,0,0,70,93.73a43.57,43.57,0,0,0,24.17-24.2,47.57,47.57,0,0,0,3.45-18.26A47.58,47.58,0,0,0,94.21,33,43.64,43.64,0,0,0,70,8.81,47.68,47.68,0,0,0,51.76,5.37,47.58,47.58,0,0,0,33.52,8.81,43.77,43.77,0,0,0,9.3,33,47.77,47.77,0,0,0,5.86,51.27,47.76,47.76,0,0,0,9.3,69.53a43.5,43.5,0,0,0,24.2,24.2A47.72,47.72,0,0,0,51.76,97.17ZM28.86,62.84a14.73,14.73,0,0,1-7.6-2,15.31,15.31,0,0,1-5.46-5.47,15.26,15.26,0,0,1,0-15.21,15.25,15.25,0,0,1,5.46-5.45,14.73,14.73,0,0,1,7.6-2,14.61,14.61,0,0,1,7.61,2,15.3,15.3,0,0,1,5.45,5.45,15.26,15.26,0,0,1,0,15.21,15.36,15.36,0,0,1-5.45,5.47A14.61,14.61,0,0,1,28.86,62.84Zm0-3.9a10.74,10.74,0,0,0,5.64-1.52,11.66,11.66,0,0,0,4-4.05,11.25,11.25,0,0,0,0-11.26,11.75,11.75,0,0,0-4-4,11.19,11.19,0,0,0-11.26,0,11.63,11.63,0,0,0-4,4,11.25,11.25,0,0,0,0,11.26,11.55,11.55,0,0,0,4,4.05A10.77,10.77,0,0,0,28.86,58.94ZM19.34,74a1.29,1.29,0,0,1-.74-2l2.54-5.13a1.35,1.35,0,0,1,2-.78,1.3,1.3,0,0,1,.73,2l-2.54,5.12A1.34,1.34,0,0,1,19.34,74Zm3.17-49.26-2.15-4.35a18.89,18.89,0,0,1,4.74-1.68,23.51,23.51,0,0,1,5-.52,29.9,29.9,0,0,1,5,.42q2.52.4,5.16,1.1l-1.27,4.73a43.56,43.56,0,0,0-4.45-1,26.75,26.75,0,0,0-4.34-.36,20,20,0,0,0-4,.39A13.79,13.79,0,0,0,22.51,24.76Zm6.35,28.41a5.42,5.42,0,1,1,3.83-9.25,5.42,5.42,0,0,1-3.83,9.25ZM24.71,75.39a1.6,1.6,0,0,1-.81-.81,1.21,1.21,0,0,1,0-1.14l3.9-7.86c.46-.91,1.09-1.18,1.91-.79a1.7,1.7,0,0,1,.8.81,1.26,1.26,0,0,1,0,1.15l-3.91,7.86C26.16,75.52,25.52,75.78,24.71,75.39ZM31.35,74a1.29,1.29,0,0,1-.73-2l2.53-5.13a1.35,1.35,0,0,1,2-.78,1.3,1.3,0,0,1,.73,2L33.3,73.24A1.34,1.34,0,0,1,31.35,74Zm12,9.48V78.12h16.8V83.5Zm31.3-20.66a14.67,14.67,0,0,1-7.59-2,15.25,15.25,0,0,1-5.47-5.47,15.26,15.26,0,0,1,0-15.21,15.2,15.2,0,0,1,5.47-5.45,15.33,15.33,0,0,1,15.21,0,15.35,15.35,0,0,1,5.44,5.45,15.26,15.26,0,0,1,0,15.21,15.41,15.41,0,0,1-5.44,5.47A14.67,14.67,0,0,1,74.66,62.84ZM81,24.76a13.92,13.92,0,0,0-3.64-1.27,20,20,0,0,0-4-.39,27,27,0,0,0-4.32.36,43.32,43.32,0,0,0-4.47,1l-1.27-4.73c1.76-.46,3.48-.83,5.18-1.1a30.12,30.12,0,0,1,4.93-.42,23.91,23.91,0,0,1,5,.52,18.08,18.08,0,0,1,4.68,1.68ZM74.66,58.94a10.74,10.74,0,0,0,5.64-1.52,11.66,11.66,0,0,0,4-4.05,11.25,11.25,0,0,0,0-11.26,11.75,11.75,0,0,0-4-4,11.19,11.19,0,0,0-11.26,0,11.63,11.63,0,0,0-4.05,4,11.25,11.25,0,0,0,0,11.26A11.55,11.55,0,0,0,69,57.42,10.79,10.79,0,0,0,74.66,58.94ZM68.41,74a1.29,1.29,0,0,1-.73-2l2.53-5.13a1.35,1.35,0,0,1,2-.78,1.3,1.3,0,0,1,.73,2l-2.54,5.12A1.34,1.34,0,0,1,68.41,74Zm6.25-20.85a5.41,5.41,0,1,1,3.83-1.58A5.18,5.18,0,0,1,74.66,53.17Zm-.88,22.22a1.6,1.6,0,0,1-.81-.81,1.21,1.21,0,0,1,0-1.14l3.9-7.86c.46-.91,1.09-1.18,1.91-.79a1.66,1.66,0,0,1,.8.81,1.23,1.23,0,0,1,0,1.15l-3.91,7.86C75.23,75.52,74.59,75.78,73.78,75.39ZM80.42,74a1.29,1.29,0,0,1-.73-2l2.54-5.13a1.34,1.34,0,0,1,2-.78,1.3,1.3,0,0,1,.73,2l-2.54,5.12A1.34,1.34,0,0,1,80.42,74Z"/></g></g></svg>
