<svg xmlns="http://www.w3.org/2000/svg" viewBox="0 0 112.3 97.66"><defs></defs><g id="Capa_2" data-name="Capa 2"><g id="Capa_1-2" data-name="Capa 1"><path class="cls-1" d="M2.15,72.75,0,67.87a27.3,27.3,0,0,1,6.79-2.29,37.67,37.67,0,0,1,8-.83,32.8,32.8,0,0,1,4,.24,19.15,19.15,0,0,1,3.61.78L21,71a19,19,0,0,0-2.47-.61,17.12,17.12,0,0,0-3.15-.27,36,36,0,0,0-7.15.73A23.73,23.73,0,0,0,2.15,72.75ZM19.43,63a31.29,31.29,0,0,0-8.1-2.52,62.51,62.51,0,0,0-10.65-.8V54.35a72.21,72.21,0,0,1,11.84.87,29.31,29.31,0,0,1,9,2.89ZM8.54,85.94l-4.1-3.47a19.79,19.79,0,0,1,5.28-4.61A30.4,30.4,0,0,1,17,74.56a26.52,26.52,0,0,1,7.81-1.22v5.37a21,21,0,0,0-6.15,1,25.87,25.87,0,0,0-5.86,2.61A15.63,15.63,0,0,0,8.54,85.94ZM56.15,97.66a57.36,57.36,0,0,1-18.94-3,43.76,43.76,0,0,1-14.75-8.45,37.09,37.09,0,0,1-9.54-13.11A41.55,41.55,0,0,1,9.57,56.2a43.79,43.79,0,0,1,2-13.38,71.43,71.43,0,0,1-3.76-22q0-9.61,2.86-15.21T18.7,0a12.91,12.91,0,0,1,6.52,2.12A39.43,39.43,0,0,1,32.52,8a72.64,72.64,0,0,1,7.37,8.67,61.71,61.71,0,0,1,7.77-1.59,64.71,64.71,0,0,1,17,0,61.55,61.55,0,0,1,7.76,1.59A72.68,72.68,0,0,1,79.79,8a38.55,38.55,0,0,1,7.32-5.86A13,13,0,0,1,93.6,0q5.24,0,8.06,5.59t2.83,15.21a70.55,70.55,0,0,1-3.76,22,43.76,43.76,0,0,1,2,13.38,41.72,41.72,0,0,1-3.34,16.92,37.11,37.11,0,0,1-9.55,13.11A43.81,43.81,0,0,1,75.1,94.68,57.42,57.42,0,0,1,56.15,97.66Zm0-5.37q12.32,0,21.46-4.55A34.09,34.09,0,0,0,91.82,75.07,35,35,0,0,0,96.88,56.2a37.2,37.2,0,0,0-2.25-13.08,96.49,96.49,0,0,0,2.71-9.67,51.5,51.5,0,0,0,1.07-7c.15-2,.22-3.89.22-5.62A34.36,34.36,0,0,0,97.14,9.62Q95.66,5.38,93.6,5.37c-1.23,0-2.83.7-4.78,2.1a45.34,45.34,0,0,0-6.59,6.08,101.64,101.64,0,0,0-7.67,9.55,45.83,45.83,0,0,0-8.67-2.4,57.56,57.56,0,0,0-19.48,0,47.34,47.34,0,0,0-8.67,2.4,101.67,101.67,0,0,0-7.66-9.55,45.34,45.34,0,0,0-6.59-6.08c-2-1.4-3.55-2.1-4.79-2.1s-2.55,1.42-3.54,4.25A34.64,34.64,0,0,0,13.67,20.8c0,1.73.08,3.6.22,5.62a53.3,53.3,0,0,0,1.08,7,96.49,96.49,0,0,0,2.71,9.67A37.2,37.2,0,0,0,15.43,56.2a35,35,0,0,0,5.05,18.87A34.11,34.11,0,0,0,34.72,87.74,47.73,47.73,0,0,0,56.15,92.29Zm-34.91-56a36.73,36.73,0,0,1-1.93-7.86,59.31,59.31,0,0,1-.66-8.5,27.42,27.42,0,0,1,.49-5.69C19.47,12.72,20,12,20.61,12s1.56.62,2.93,1.86a53,53,0,0,1,4.61,4.88q2.57,3,5.05,6.54a29.89,29.89,0,0,0-6.3,4.84A62.6,62.6,0,0,0,21.24,36.28Zm12.7,25.88a5.59,5.59,0,0,1-4.45-2.27,9.09,9.09,0,0,1,0-11,5.49,5.49,0,0,1,8.89,0,9.09,9.09,0,0,1,0,11A5.59,5.59,0,0,1,33.94,62.16ZM49,78.71a12.64,12.64,0,0,1-5.64-1.34,13.07,13.07,0,0,1-4.41-3.44l3.71-3.52a9.37,9.37,0,0,0,2.93,2.15,7.9,7.9,0,0,0,3.41.78,4.89,4.89,0,0,0,3.74-1.42A5.45,5.45,0,0,0,54.05,68h4.2a5.45,5.45,0,0,0,1.34,3.9,4.89,4.89,0,0,0,3.74,1.42,8.1,8.1,0,0,0,3.44-.78,8.86,8.86,0,0,0,2.91-2.15l3.71,3.52A13.11,13.11,0,0,1,69,77.37a12.64,12.64,0,0,1-5.64,1.34,9.09,9.09,0,0,1-7.18-3.12A9.07,9.07,0,0,1,49,78.71Zm.88-43.5q-1.8,0-4.07-3T41.06,20.75l13.19-2c.06.81.11,1.61.14,2.39s0,1.55,0,2.3a24.42,24.42,0,0,1-1.22,8.62Q52,35.21,49.85,35.21Zm6.3,34.71a7.31,7.31,0,0,1-3.64-1,10.25,10.25,0,0,1-3-2.56,4.73,4.73,0,0,1-1.2-2.88,3.12,3.12,0,0,1,2.1-2.86,13.57,13.57,0,0,1,5.76-1,13.57,13.57,0,0,1,5.76,1A3.12,3.12,0,0,1,64,63.43a4.77,4.77,0,0,1-1.19,2.88,10.46,10.46,0,0,1-3,2.56A7.19,7.19,0,0,1,56.15,69.92Zm6.3-34.71q-2.14,0-3.37-3.15a24.65,24.65,0,0,1-1.22-8.62c0-.75,0-1.52,0-2.3s.08-1.58.15-2.39l13.18,2q-2.44,8.4-4.69,11.43C65.05,34.2,63.69,35.21,62.45,35.21ZM78.37,62.16a5.56,5.56,0,0,1-4.44-2.27,9,9,0,0,1,0-11,5.48,5.48,0,0,1,8.88,0,9,9,0,0,1,0,11A5.57,5.57,0,0,1,78.37,62.16ZM91.06,36.28a62.6,62.6,0,0,0-5.66-6.2,29.89,29.89,0,0,0-6.3-4.84q2.49-3.51,5.08-6.54a55.91,55.91,0,0,1,4.61-4.88Q90.82,12,91.7,12c.65,0,1.14.76,1.46,2.27a27.42,27.42,0,0,1,.49,5.69,59.31,59.31,0,0,1-.66,8.5A36.73,36.73,0,0,1,91.06,36.28Zm12.7,49.66a14.76,14.76,0,0,0-4.22-3.64,26.3,26.3,0,0,0-5.89-2.61,20.85,20.85,0,0,0-6.15-1V73.34a26.46,26.46,0,0,1,7.84,1.22,30.62,30.62,0,0,1,7.25,3.3,19.74,19.74,0,0,1,5.27,4.61Zm6.4-13.19a24,24,0,0,0-6-2A36.1,36.1,0,0,0,97,70.07a17.18,17.18,0,0,0-3.12.27,18.16,18.16,0,0,0-2.49.61l-1.42-5.18A19.33,19.33,0,0,1,93.55,65a33,33,0,0,1,4-.24,38.06,38.06,0,0,1,8,.83,26.37,26.37,0,0,1,6.76,2.29ZM92.87,63l-2.05-4.93a29.4,29.4,0,0,1,9-2.89,72.29,72.29,0,0,1,11.84-.87v5.37a62,62,0,0,0-10.62.8A32.27,32.27,0,0,0,92.87,63Z"/></g></g></svg>
