<svg xmlns="http://www.w3.org/2000/svg" viewBox="0 0 101.07 102.54"><defs></defs><g id="Capa_2" data-name="Capa 2"><g id="Capa_1-2" data-name="Capa 1"><path class="cls-1" d="M50.54,102.54a48.86,48.86,0,0,1-19.66-4A51.24,51.24,0,0,1,0,51.27,50.67,50.67,0,0,1,3.91,31.35,51.3,51.3,0,0,1,30.88,4,48.86,48.86,0,0,1,50.54,0,48.78,48.78,0,0,1,70.19,4,50.86,50.86,0,0,1,86.3,15,51.62,51.62,0,0,1,97.17,31.35a50.84,50.84,0,0,1,3.9,19.92A51.29,51.29,0,0,1,70.19,98.56,48.78,48.78,0,0,1,50.54,102.54Zm0-5.62a44.1,44.1,0,0,0,17.6-3.49,43.59,43.59,0,0,0,14.21-9.74,45.22,45.22,0,0,0,9.47-14.55,46.79,46.79,0,0,0,3.39-17.87,46.8,46.8,0,0,0-3.39-17.9,45.2,45.2,0,0,0-9.47-14.52A43.43,43.43,0,0,0,68.14,9.11a44.1,44.1,0,0,0-17.6-3.49A44.11,44.11,0,0,0,32.93,9.11a43.39,43.39,0,0,0-14.2,9.74A45.06,45.06,0,0,0,9.25,33.37a46.8,46.8,0,0,0-3.39,17.9A46.79,46.79,0,0,0,9.25,69.14a45.09,45.09,0,0,0,9.48,14.55,43.55,43.55,0,0,0,14.2,9.74A44.11,44.11,0,0,0,50.54,96.92ZM37.35,49.12c-1.75,0-2.94-.5-3.56-1.49a5.35,5.35,0,0,1-.93-2.81,1.09,1.09,0,0,0-.17-.63.63.63,0,0,0-.56-.24,3.17,3.17,0,0,0-2.17,1,17.23,17.23,0,0,0-2.18,2.54l-3.22-.68q1-5.09,4.18-7.3a11.51,11.51,0,0,1,6.66-2.22,7.15,7.15,0,0,1,5.1,1.8,6.25,6.25,0,0,1,1.93,4.79,5,5,0,0,1-1.51,4A5.33,5.33,0,0,1,37.35,49.12Zm13.19,21a21.44,21.44,0,0,1-14.21-5l3.07-3.71a17,17,0,0,0,11.14,3.85,17,17,0,0,0,11.13-3.85l3.08,3.71A21.46,21.46,0,0,1,50.54,70.12Zm-.39-9.57a13.56,13.56,0,0,1-4.45-.93l1.47-4.3a10.35,10.35,0,0,0,3,.64,1.76,1.76,0,0,0,1.36-.44,1.87,1.87,0,0,0,.39-1.27,7.77,7.77,0,0,0-1.12-4q-1.12-1.91-2.24-4.05a10.36,10.36,0,0,1-1.13-4.88,8.83,8.83,0,0,1,1.3-4.52,7.69,7.69,0,0,1,3.15-3.15l2.1,4.3a2.86,2.86,0,0,0-1.27,1.32,4.28,4.28,0,0,0-.49,2.05,7.66,7.66,0,0,0,1.12,3.78q1.13,2,2.25,4.23a11,11,0,0,1,1.12,4.93,6,6,0,0,1-1.9,4.49A6.52,6.52,0,0,1,50.15,60.55Zm-.54,18.06L49,74.22a19.13,19.13,0,0,0,3.89-.93,12.56,12.56,0,0,0,3.19-1.71l2.54,3.62A19.7,19.7,0,0,1,49.61,78.61ZM71.53,49.12c-1.75,0-2.94-.5-3.56-1.49A5.35,5.35,0,0,1,67,44.82a1.09,1.09,0,0,0-.17-.63.63.63,0,0,0-.56-.24,3.15,3.15,0,0,0-2.17,1A17.23,17.23,0,0,0,62,47.46l-3.22-.68q1-5.09,4.18-7.3a11.51,11.51,0,0,1,6.66-2.22,7.15,7.15,0,0,1,5.1,1.8,6.25,6.25,0,0,1,1.93,4.79,5,5,0,0,1-1.51,4A5.33,5.33,0,0,1,71.53,49.12Z"/></g></g></svg>
