<svg xmlns="http://www.w3.org/2000/svg" viewBox="0 0 102.44 102.54"><defs></defs><g id="Capa_2" data-name="Capa 2"><g id="Capa_1-2" data-name="Capa 1"><path class="cls-1" d="M37.5,102.54,33.3,82.23,13.72,88.77l6.54-19.58L0,65,15.43,51.27,0,37.55l20.26-4.2L13.72,13.77,33.3,20.31,37.5,0,51.22,15.53,64.94,0l4.2,20.31,19.58-6.54L82.18,33.35l20.26,4.2L87,51.27,102.44,65l-20.26,4.2,6.54,19.58L69.14,82.23l-4.2,20.31L51.22,87ZM51.22,84.67a32.64,32.64,0,0,0,13-2.59A33.67,33.67,0,0,0,82,64.26a33.87,33.87,0,0,0,0-26A33.67,33.67,0,0,0,64.21,20.46a33.87,33.87,0,0,0-26,0A33.67,33.67,0,0,0,20.41,38.28a33.87,33.87,0,0,0,0,26A33.67,33.67,0,0,0,38.23,82.08,32.64,32.64,0,0,0,51.22,84.67ZM37.35,48.34a3.56,3.56,0,0,1-2.85-1.49,5.54,5.54,0,0,1-1.2-3.59,5.42,5.42,0,0,1,1.2-3.56,3.53,3.53,0,0,1,5.73,0,5.46,5.46,0,0,1,1.18,3.56,5.58,5.58,0,0,1-1.18,3.59A3.55,3.55,0,0,1,37.35,48.34ZM51.22,67.58a18.58,18.58,0,0,1-12.35-4.4l2.83-3.32a14.4,14.4,0,0,0,9.52,3.32,14.4,14.4,0,0,0,9.52-3.32l2.83,3.32A18.58,18.58,0,0,1,51.22,67.58Zm-.15-9.13a11.81,11.81,0,0,1-4-.83l1.56-4.1a7.28,7.28,0,0,0,2.44.53,1.48,1.48,0,0,0,1-.31,1.25,1.25,0,0,0,.34-1,6.69,6.69,0,0,0-.95-3.39c-.64-1.09-1.28-2.26-1.93-3.52a9.23,9.23,0,0,1-1-4.32,7.89,7.89,0,0,1,1.08-4,6.91,6.91,0,0,1,2.73-2.76l2,3.91a2.51,2.51,0,0,0-1,1.12A3.57,3.57,0,0,0,53,41.55a4.27,4.27,0,0,0,.32,1.57,22.64,22.64,0,0,0,1.24,2.53c.49.92,1,2,1.51,3.18a9.68,9.68,0,0,1,.79,4,5.48,5.48,0,0,1-1.64,4.06A5.66,5.66,0,0,1,51.07,58.45Zm14-10.11a3.58,3.58,0,0,1-2.86-1.49A5.53,5.53,0,0,1,61,43.26a5.41,5.41,0,0,1,1.19-3.56,3.54,3.54,0,0,1,5.74,0,5.51,5.51,0,0,1,1.17,3.56A5.63,5.63,0,0,1,68,46.85,3.55,3.55,0,0,1,65.09,48.34Z"/></g></g></svg>
